# xmcd
#
# Track frame offsets:
#	150
#	9517
#	23072
#	34865
#	48015
#	59455
#	71025
#	80212
#	93557
#	105642
#	115927
#	127732
#	141577
#	152245
#	162352
#	177995
#	190212
#	203822
#	216917
#	227767
#	239670
#	249735
#	259830
#	270520
#
# Disc length: 3757 seconds
#
# Revision: 4
# Processed by: cddbd v1.5.2PL0 Copyright (c) Steve Scherf et al.
# Submitted via: audiograbber 1.83.01
#
DISCID=5f0eab18
DTITLE=Various Artist - Country USA - 1962
DYEAR=1900
DGENRE=
TTITLE0=Lester Flatt and Earl Scruggs - The Ballad Of Jed Clampett
TTITLE1=Claude King - Wolverton Mountain
TTITLE2=George Jones - She Thinks I Still Care
TTITLE3=Patsy Cline - Imagine That
TTITLE4=Don Gibson - I Can Mend Your Broken Heart
TTITLE5=Hank Snow - I've Been Everywhere
TTITLE6=Marty Robbins - Ruby Ann
TTITLE7=Carl Butler - Dont't Let Me Cross Over
TTITLE8=Loretta Lynn - Success
TTITLE9=Charlie Walker - Charlie's Shoes
TTITLE10=Porter Wagoner - Misery Loves Company
TTITLE11=Willie Nelson - Funny How Time Slips Away
TTITLE12=Don Gibson - Lonesome Number One
TTITLE13=Johnny Horton - Honky-Tonk Man
TTITLE14=Bill Anderson - Mama Sang A Song
TTITLE15=Stonewall Jackson - A Wound Time Can't Erase
TTITLE16=Patsy Cline - She's Got You
TTITLE17=Marty Robbins - Devil Woman
TTITLE18=Johnny Cash - In The Jailhouse Now
TTITLE19=Skeeter Davis - The End Of The World
TTITLE20=The Wilburn Brothers - Trouble's Back In Town
TTITLE21=Willie Nelson - Touch Me
TTITLE22=Leroy Van Dyke - If A Woman Answers
TTITLE23=Jim Reeves - Adios Amigo
EXTD=
EXTT0=
EXTT1=
EXTT2=
EXTT3=
EXTT4=
EXTT5=
EXTT6=
EXTT7=
EXTT8=
EXTT9=
EXTT10=
EXTT11=
EXTT12=
EXTT13=
EXTT14=
EXTT15=
EXTT16=
EXTT17=
EXTT18=
EXTT19=
EXTT20=
EXTT21=
EXTT22=
EXTT23=
PLAYORDER=
